<svg width="500" height="500" viewBox="0 0 500 500" fill="none" xmlns="http://www.w3.org/2000/svg">
<path d="M139 208.46V249.36C139 252.073 137.922 254.675 136.004 256.594C134.085 258.512 131.483 259.59 128.77 259.59C126.057 259.59 123.455 258.512 121.536 256.594C119.618 254.675 118.54 252.073 118.54 249.36V208.46H103.37V249.36C103.303 252.741 103.911 256.102 105.159 259.245C106.406 262.389 108.268 265.252 110.636 267.667C113.003 270.082 115.829 272 118.947 273.31C122.065 274.62 125.413 275.294 128.795 275.294C132.177 275.294 135.525 274.62 138.643 273.31C141.761 272 144.587 270.082 146.954 267.667C149.322 265.252 151.184 262.389 152.431 259.245C153.679 256.102 154.287 252.741 154.22 249.36V208.46H139Z" fill="#570B03"/>
<path d="M164.92 208.35V273.83H180.08V208.35H164.92Z" fill="#570B03"/>
<path d="M240.47 208.46H188.88V223.61H216.2L188.76 270.23V273.83H240.47V258.68H213.13L240.47 212.17V208.46Z" fill="#570B03"/>
<path d="M287.51 208.35V244.05L262.72 208.35H250.11V273.83H265.38V237.91L290.38 273.83H302.77V208.35H287.51Z" fill="#570B03"/>
<path d="M357.23 223.51V208.35H315.38V273.93H356.8V258.68H330.64V248.68H353.31V233.57H330.64V223.51H357.23Z" fill="#570B03"/>
<path d="M388.7 232.4C383.51 231.55 379.9 229.4 379.9 226.89C379.9 223.39 386.58 222.66 389.02 222.66C394.31 222.66 399.08 225.66 399.83 226.79L412 217.46C407.45 210.89 397.18 207.46 389.23 207.46C377.46 207.46 364.65 214.97 364.65 227.59C364.65 237.33 372.28 244.33 386.15 247.4C389.86 248.13 398.24 248.66 398.24 253.97C398.24 259.05 391.56 259.58 387.96 259.58C381.81 259.58 377.15 256.19 375.24 252.69L362.74 261.38C367.93 270.6 377.74 274.74 388.06 274.74C401.95 274.74 413.49 267.1 413.49 253.55C413.49 241.83 404.8 235.16 388.7 232.4Z" fill="#570B03"/>
<path d="M444.33 232.4C439.14 231.55 435.53 229.4 435.53 226.89C435.53 223.39 442.21 222.66 444.64 222.66C449.94 222.66 454.71 225.66 455.44 226.79L467.63 217.46C463.08 210.89 452.8 207.46 444.86 207.46C433.09 207.46 420.27 214.97 420.27 227.59C420.27 237.33 427.9 244.33 441.78 247.4C445.49 248.13 453.86 248.66 453.86 253.97C453.86 259.05 447.18 259.58 443.58 259.58C437.44 259.58 432.77 256.19 430.87 252.69L418.37 261.38C423.56 270.6 433.37 274.74 443.69 274.74C457.56 274.74 469.12 267.1 469.12 253.55C469.12 241.83 460.43 235.16 444.33 232.4Z" fill="#570B03"/>
<path d="M67.67 243.63C69.1261 243.632 70.5501 243.202 71.7617 242.394C72.9734 241.587 73.9183 240.438 74.4769 239.093C75.0355 237.749 75.1827 236.269 74.8998 234.84C74.6169 233.412 73.9168 232.1 72.8878 231.069C71.8589 230.039 70.5475 229.337 69.1196 229.052C67.6916 228.767 66.2112 228.913 64.8658 229.469C63.5203 230.026 62.3703 230.969 61.5611 232.18C60.7519 233.391 60.32 234.814 60.32 236.27C60.32 238.22 61.0941 240.091 62.4722 241.471C63.8503 242.851 65.7197 243.627 67.67 243.63Z" fill="black"/>
<path d="M78.7 262C79.188 262 79.656 261.806 80.0011 261.461C80.3461 261.116 80.54 260.648 80.54 260.16C80.54 256.747 79.1841 253.473 76.7705 251.06C74.3569 248.646 71.0833 247.29 67.67 247.29C64.2567 247.29 60.9831 248.646 58.5695 251.06C56.1559 253.473 54.8 256.747 54.8 260.16C54.8 260.648 54.9939 261.116 55.3389 261.461C55.684 261.806 56.152 262 56.64 262" fill="black"/>
<path d="M96 240.6C96 222.04 81.19 206.9 63 206.9C44.81 206.9 30 222 30 240.6C30 259.2 44.82 274.4 62.94 274.4C66.7101 274.406 70.4524 273.756 74 272.48L94.85 291.9V273.55L87 263.73C92.7955 257.422 96.008 249.166 96 240.6ZM63 259.41C53.3 259.41 45.46 250.97 45.46 240.56C45.46 230.15 53.31 221.72 63 221.72C72.69 221.72 80.54 230.15 80.54 240.56C80.54 250.97 72.7 259.41 63 259.41Z" fill="#570B03"/>
<path d="M67.65 243.15C69.1136 243.15 70.5443 242.716 71.7612 241.903C72.9781 241.09 73.9266 239.934 74.4867 238.582C75.0468 237.23 75.1933 235.742 74.9078 234.306C74.6223 232.871 73.9175 231.552 72.8826 230.517C71.8477 229.482 70.5291 228.778 69.0937 228.492C67.6582 228.207 66.1703 228.353 64.8181 228.913C63.466 229.473 62.3102 230.422 61.4971 231.639C60.684 232.856 60.25 234.286 60.25 235.75C60.25 236.722 60.4414 237.684 60.8133 238.582C61.1852 239.48 61.7303 240.295 62.4174 240.983C63.1046 241.67 63.9203 242.215 64.8181 242.587C65.716 242.959 66.6782 243.15 67.65 243.15Z" fill="#570B03"/>
<path d="M78.75 261.65C79.2407 261.65 79.7112 261.455 80.0582 261.108C80.4051 260.761 80.6 260.291 80.6 259.8C80.3289 256.551 78.8466 253.522 76.447 251.314C74.0474 249.106 70.9057 247.881 67.645 247.881C64.3843 247.881 61.2426 249.106 58.843 251.314C56.4434 253.522 54.9611 256.551 54.69 259.8C54.69 260.044 54.7382 260.285 54.8318 260.51C54.9254 260.735 55.0625 260.94 55.2354 261.112C55.4082 261.284 55.6134 261.42 55.839 261.512C56.0646 261.604 56.3062 261.651 56.55 261.65" fill="#570B03"/>
<path d="M70.52 249.79H66.99L67.53 252.73H69.98L70.52 249.79Z" fill="#FFD600"/>
<path d="M66.7 261.25L68.75 263.31L70.81 261.25L69.96 253.61H67.55L66.7 261.25Z" fill="#FFD600"/>
</svg>
